/* XPM */
static char *mugshot[] = {
/* columns rows colors chars-per-pixel */
"16 16 28 1",
"  c black",
". c #49188F",
"X c #521A88",
"o c #531B89",
"O c #551E8A",
"+ c #57208B",
"@ c #58218C",
"# c #59238D",
"$ c #5B258E",
"% c #76459F",
"& c #7E56AD",
"* c #AB86C1",
"= c #AC87C1",
"- c #BB94C8",
"; c #BC9ACB",
": c #C99CCD",
"> c #C99DCD",
", c #C5A6D2",
"< c #CBABD4",
"1 c #CEB1D8",
"2 c #D1ADD6",
"3 c #D7B7DB",
"4 c #D8B7DB",
"5 c #D9C1E4",
"6 c #DEC4E1",
"7 c #DFC6E2",
"8 c #E0C7E3",
"9 c None",
/* pixels */
"999XX9XXXX9XX999",
"9XX#$8X==X7#XXX9",
"9X,*%6X;;X7%*,X9",
"9X,6,666666,6,X9",
"9X,6*.*666666,X9",
"9X,6.,.66,.66,X9",
"9X,6.5.66,.66,X9",
"9X,6.,.66,.66,X9",
"9X,6*.*766666,X9",
"9X,666*..&666,X9",
"9X,666,>>,666,X9",
"9X,2&%%%%%%&2,X9",
"9O*>,.*--*.,>*X9",
"9XO-13&%%&31-XX9",
"99oO*<33331*XX99",
"999XXoXXXXXXX999"
};
