/* XPM */
static char * mugshot_xpm[] = {
"16 16 10 1",
" 	c None",
".	c #9A48A2",
"+	c #A256AA",
"@	c #E1CBE4",
"#	c #CEA7D2",
"$	c #CCA3D0",
"%	c #C291C7",
"&	c #A155A9",
"*	c #B57AC0",
"=	c #DBC0DF",
"   .  .  .  .   ",
" + .@@+@@+@@. + ",
" +@+@@+@@+@@+@+ ",
" +@@@@@@@@@@@@+ ",
" +@@#.#@@@@@@@+ ",
" +@@.$.@@#.@@@+ ",
" +@@.@.@@#.@@@+ ",
" +@@.$.@@#.@@@+ ",
" +@@#.#@@@@@@@+ ",
" +@@@@%..%@@@@& ",
" +@@@@@@@@@@@@& ",
" +#@*......*@#+ ",
"  +@@.%$$%.@@+  ",
"  +$@@*..*@@$+  ",
"   ++#====#++   ",
"     ++++&+     "};
